<svg xmlns="http://www.w3.org/2000/svg" xmlns:xlink="http://www.w3.org/1999/xlink" viewBox="0 0 24 30" version="1.1" x="0px" y="0px"><title>icon/turkey-solid</title><desc>Created with Sketch.</desc><g stroke="none" stroke-width="1" fill="none" fill-rule="evenodd"><path d="M11,18 C9.664,18 8.408,17.479 7.465,16.535 C6.521,15.592 6,14.336 6,13 C6,11.664 6.521,10.408 7.465,9.465 L8.879,10.879 C8.312,11.445 8,12.198 8,13 C8,13.802 8.312,14.555 8.879,15.121 C10.012,16.254 11.988,16.254 13.121,15.121 L14.535,16.535 C13.592,17.479 12.336,18 11,18 M18.372,7.646 C18.125,7.431 17.874,7.213 17.656,7 L20,7 L20,6 C20,3.794 18.206,2 16,2 C13.794,2 12,3.794 12,6 L12,9.764 L11.726,10.312 L6.343,4.929 L5.636,5.636 C2.127,9.146 2.127,14.854 5.636,18.364 C7.137,19.864 9.039,20.717 11,20.935 L11,23 L13,23 L13,20.935 C14.961,20.717 16.863,19.864 18.364,18.364 C20.033,16.693 21,15.117 21,12 C21,9.939 19.543,8.668 18.372,7.646" fill="#000000"/></g><text x="0" y="39" fill="#000000" font-size="5px" font-weight="bold" font-family="'Helvetica Neue', Helvetica, Arial-Unicode, Arial, Sans-serif">Created by Travis Avery</text><text x="0" y="44" fill="#000000" font-size="5px" font-weight="bold" font-family="'Helvetica Neue', Helvetica, Arial-Unicode, Arial, Sans-serif">from the Noun Project</text></svg>